<svg xmlns="http://www.w3.org/2000/svg" viewBox="0 0 512 512" role="img" aria-labelledby="title desc">
  <title id="title">CrochetReader home-screen icon</title>
  <desc id="desc">A crochet chart grid with a coral active row and a gold current cell marked by a white X</desc>
  <rect width="512" height="512" fill="#245C4A"/>

  <g fill="none" stroke="#F4F1E7" stroke-width="12" stroke-linecap="square">
    <rect x="72" y="72" width="368" height="368"/>
    <path d="M145.6 72v368M219.2 72v368M292.8 72v368M366.4 72v368"/>
    <path d="M72 145.6h368M72 219.2h368M72 292.8h368M72 366.4h368"/>
  </g>

  <rect x="78" y="225.2" width="356" height="61.6" fill="#C74F43"/>
  <rect x="298.8" y="225.2" width="61.6" height="61.6" fill="#D6A83F"/>

  <g fill="none" stroke="#FFFFFF" stroke-width="13" stroke-linecap="round">
    <path d="M314 240.4l30.4 30.4M344.4 240.4L314 270.8"/>
  </g>

  <g fill="none" stroke="#F4F1E7" stroke-width="12" stroke-linecap="square">
    <path d="M72 219.2h368M72 292.8h368"/>
    <path d="M145.6 219.2v73.6M219.2 219.2v73.6M292.8 219.2v73.6M366.4 219.2v73.6"/>
  </g>
</svg>
